<svg xmlns:xlink="http://www.w3.org/1999/xlink" xmlns="http://www.w3.org/2000/svg" viewBox="0 0 20 20" aria-labelledby="IconBase-title-v-0-0-0-0-0-0-5-0-0-4-1-2-0-0-0-0-0 IconBase-description-v-0-0-0-0-0-0-5-0-0-4-1-2-0-0-0-0-0" role="graphics-symbol img" width="20" height="20" class="ExploreCategoryCarousel-icon-hZF" data-iid="v-0-0-0-0-0-0-5-0-0-4-1-2-0-0-0-0-0"><title id="IconBase-title-v-0-0-0-0-0-0-5-0-0-4-1-2-0-0-0-0-0">Best of Behance Icon</title><desc id="IconBase-description-v-0-0-0-0-0-0-5-0-0-4-1-2-0-0-0-0-0"></desc><g><!--[--><path class="BestOfBehance-path-_ID" fill-rule="evenodd" d="M5.25 2.236a.88.88 0 0 0-.58.434 11 11 0 0 0-.416 1.192 3 3 0 0 0 0 1.01q.169.78.68 1.296c.178.179.73.63.887.725a.82.82 0 0 0 1.141-.34c.055-.109.344-.917.384-1.074a2.59 2.59 0 0 0-.614-2.375 10 10 0 0 0-.901-.753.86.86 0 0 0-.582-.115m9.196.002a1 1 0 0 0-.192.067c-.142.068-.801.602-.987.799a2.59 2.59 0 0 0-.614 2.375c.04.157.329.965.384 1.075a.82.82 0 0 0 .733.449c.157 0 .281-.034.408-.11.158-.095.71-.546.887-.725.44-.445.696-1.045.723-1.697a2.3 2.3 0 0 0-.072-.722c-.057-.228-.36-1.046-.428-1.15a.85.85 0 0 0-.556-.363.64.64 0 0 0-.286.002m-9.02 1.524c-.107.304-.125.39-.125.608 0 .514.214.91.692 1.28.128.1.106.123.232-.249.084-.248.092-.284.1-.47a1.44 1.44 0 0 0-.46-1.147c-.127-.12-.32-.279-.34-.279-.005 0-.05.116-.099.257m8.915-.16c-.486.386-.688.79-.666 1.33.007.185.015.221.1.47.125.37.103.348.231.248.39-.302.583-.588.664-.982a1.8 1.8 0 0 0 .01-.556c-.018-.101-.191-.607-.207-.607-.006 0-.065.044-.132.097M2.711 6.44a.9.9 0 0 0-.655.769c-.013.118.08 1.02.131 1.275.103.51.322.913.704 1.296.31.31.608.499.99.626.22.073 1.022.252 1.185.264.433.032.844-.299.917-.737.018-.11.015-.182-.027-.583-.026-.252-.063-.551-.082-.665a2.59 2.59 0 0 0-1.682-2 9 9 0 0 0-.636-.16c-.547-.12-.667-.133-.845-.085m13.727.086c-.667.15-.874.226-1.195.441-.57.383-.97.97-1.1 1.622-.037.18-.141 1.09-.141 1.226 0 .107.057.304.121.416a.9.9 0 0 0 .823.44c.157-.014.966-.197 1.173-.265.383-.128.681-.316.989-.625.363-.365.586-.762.695-1.236.027-.12.061-.384.116-.906.033-.31.035-.383.018-.487a.9.9 0 0 0-.656-.713c-.18-.047-.307-.034-.843.087M3.178 7.599c0 .098.072.65.097.748.067.257.209.492.42.694.24.229.43.318.902.422l.26.058.006-.041a4 4 0 0 0-.031-.359c-.042-.36-.097-.556-.21-.748a1.52 1.52 0 0 0-.808-.663 5 5 0 0 0-.322-.08l-.274-.062c-.032-.007-.04-.002-.04.03m13.33.03a6 6 0 0 0-.359.093c-.309.112-.595.353-.771.651-.114.193-.169.388-.21.744-.02.172-.035.334-.035.36v.045l.152-.033c.602-.13.765-.203 1.029-.457.146-.142.24-.272.325-.451.08-.172.107-.285.147-.634.038-.329.041-.388.022-.386-.008 0-.143.031-.3.068M3.908 11.19c-.033.005-.311.036-.617.07-.331.035-.604.074-.672.094a.89.89 0 0 0-.61.726c-.033.231-.005.322.302.986.381.825.474.975.79 1.282.461.445 1.052.7 1.686.724.19.008.328-.002.864-.062q.638-.072.745-.107l.108-.036.133.128c.378.36.844.675 1.41.949l.301.147-.188.095c-.464.236-.936.56-1.22.837-.217.212-.248.494-.08.736a.56.56 0 0 0 .659.173c.038-.018.16-.108.27-.2.496-.419.97-.666 1.848-.964l.362-.123.36.123c.886.3 1.35.543 1.85.963.217.184.292.227.427.245a.6.6 0 0 0 .383-.1.547.547 0 0 0 .129-.752c-.165-.229-.786-.673-1.318-.942l-.18-.091.287-.14c.583-.283 1.039-.59 1.423-.956l.133-.127.103.034q.102.035.745.107c.725.081.948.084 1.272.018a2.62 2.62 0 0 0 1.722-1.238c.047-.081.205-.407.35-.723.308-.664.336-.755.303-.986a.89.89 0 0 0-.61-.726 7 7 0 0 0-.68-.098c-.693-.08-.985-.086-1.284-.027a2.62 2.62 0 0 0-1.821 1.375c-.035.07-.166.348-.29.617-.25.538-.26.555-.583.875-.445.442-.988.784-1.66 1.047-.292.114-1.01.353-1.061.353-.018 0-.203-.056-.412-.124-1.109-.36-1.726-.702-2.305-1.272-.326-.321-.338-.339-.588-.88-.124-.268-.255-.546-.29-.616a2.61 2.61 0 0 0-1.812-1.372 3.3 3.3 0 0 0-.684-.041m-.33 1.132c-.206.025-.376.047-.379.049-.011.01.393.852.458.953.256.395.745.658 1.222.657.084 0 .32-.02.526-.043l.385-.043c.02 0-.379-.846-.447-.948a1.5 1.5 0 0 0-.59-.515c-.314-.155-.584-.18-1.175-.11m12.064-.02a1.5 1.5 0 0 0-.988.645c-.068.102-.467.947-.447.948l.385.043c.206.024.442.043.525.043.476.001.968-.263 1.222-.656.066-.102.47-.944.459-.954a14 14 0 0 0-.927-.093c-.057 0-.16.012-.229.024" clip-rule="evenodd" fill="#FFFFFF"></path><!--]--></g></svg>