<svg xmlns:xlink="http://www.w3.org/1999/xlink" xmlns="http://www.w3.org/2000/svg" viewBox="0 0 16.25 20" stroke="currentColor" className="HireSubNavFreelanceProjects-icon-nYU Nav-icon-Xrr" aria-hidden="true" width="16.25"  height="20" ><g transform="translate(-2.375 -0.125)" stroke="#474747"><path d="M7.5,10.51H15" transform="translate(-0.75 -1.627)" fill="none" stroke="#474747" stroke-linecap="round" stroke-linejoin="round" stroke-width="1.25px"></path><path d="M7.5,14.26H15" transform="translate(-0.75 -2.252)" fill="none" stroke="#474747" stroke-linecap="round" stroke-linejoin="round" stroke-width="1.25px"></path><path d="M7.5,18.01H15" transform="translate(-0.75 -2.877)" fill="none" stroke="#474747" stroke-linecap="round" stroke-linejoin="round" stroke-width="1.25px"></path><path d="M13.625,3.875H16.75A1.25,1.25,0,0,1,18,5.125V18.25a1.25,1.25,0,0,1-1.25,1.25H4.25A1.25,1.25,0,0,1,3,18.25V5.125a1.25,1.25,0,0,1,1.25-1.25H7.375a3.125,3.125,0,1,1,6.25,0Z" fill="none" stroke="#474747" stroke-linecap="round" stroke-linejoin="round" stroke-width="1.25px"></path><path d="M11.938,4.386a.313.313,0,0,1,0-.625" transform="translate(-1.438 -0.502)" fill="none" stroke="#474747" stroke-width="1.25px"></path><path d="M12,4.386a.313.313,0,0,0,0-.625" transform="translate(-1.5 -0.502)" fill="none" stroke="#474747" stroke-width="1.25px"></path></g></svg>