<svg xmlns:xlink="http://www.w3.org/1999/xlink" xmlns="http://www.w3.org/2000/svg" viewBox="0 0 23 20" aria-labelledby="IconBase-title-v-0-0-0-0-0-0-5-0-0-2-1-2-8-0-0-0 IconBase-description-v-0-0-0-0-0-0-5-0-0-2-1-2-8-0-0-0" role="graphics-symbol img" width="20" height="20" fill="#707070" class="ExploreSearchOptions-uploadFileIcon-Se5" aria-hidden="true" data-iid="v-0-0-0-0-0-0-5-0-0-2-1-2-8-0-0-0"><title id="IconBase-title-v-0-0-0-0-0-0-5-0-0-2-1-2-8-0-0-0" fill="#707070"></title><desc id="IconBase-description-v-0-0-0-0-0-0-5-0-0-2-1-2-8-0-0-0" fill="#707070">baseIcon</desc><g fill="#707070"><!--[--><path fill-rule="evenodd" d="M6.68.592c-1.328.097-2.5.53-3.529 1.308A6.489 6.489 0 0 0 .629 6.24a8.719 8.719 0 0 0-.031 1.373 6.522 6.522 0 0 0 2.076 4.233 6.62 6.62 0 0 0 2.479 1.422c.42.125.665.177.797.166a.643.643 0 0 0 .513-.354.649.649 0 0 0 .012-.505.67.67 0 0 0-.263-.303 2.342 2.342 0 0 0-.382-.122 5.383 5.383 0 0 1-2.08-1.03 6.243 6.243 0 0 1-.761-.771A5.297 5.297 0 0 1 1.86 7.636c-.03-.28-.026-.885.009-1.18A5.234 5.234 0 0 1 5.779 2c.45-.115.721-.147 1.251-.148.501-.002.672.014 1.09.099a5.225 5.225 0 0 1 4.05 4c.065.28.117.395.227.494a.557.557 0 0 0 .317.157c.175.036.3.004.52-.135.52-.327 1.018-.49 1.586-.52a3.155 3.155 0 0 1 2.429.944c.255.255.422.49.582.82.198.407.298.773.326 1.196.108 1.594-.973 3.005-2.554 3.336-.164.035-.304.043-.923.055-.701.013-.734.015-.832.059a.715.715 0 0 0-.311.303.744.744 0 0 0 0 .54.72.72 0 0 0 .311.304c.097.044.13.046.632.053.292.003.659-.004.816-.016a4.435 4.435 0 0 0 4.05-5.221 4.409 4.409 0 0 0-1.249-2.353 3.914 3.914 0 0 0-.651-.532 4.276 4.276 0 0 0-2.436-.74c-.645-.001-.99.065-1.752.337-.025.009-.044-.023-.087-.145a6.542 6.542 0 0 0-2.05-2.877A7.171 7.171 0 0 0 9.334.994 7.005 7.005 0 0 0 7.77.62 11.41 11.41 0 0 0 6.68.592Zm3.205 10.549a.905.905 0 0 0-.16.051c-.05.023-.599.557-1.63 1.586-1.219 1.218-1.562 1.572-1.593 1.642a.631.631 0 0 0 .293.828c.17.088.43.079.593-.021.045-.028.512-.48 1.037-1.004l.955-.952.005 2.85.005 2.85.047.09a.605.605 0 0 0 .563.347c.25 0 .446-.121.563-.348l.047-.09.005-2.85.005-2.849.955.952c.525.524.992.976 1.038 1.003.208.129.496.107.713-.054.147-.108.253-.376.224-.57-.031-.214-.007-.187-1.606-1.789a78.678 78.678 0 0 0-1.594-1.572.63.63 0 0 0-.465-.1Z" clip-rule="evenodd" fill="#707070"></path><!--]--></g></svg>