<svg xmlns:xlink="http://www.w3.org/1999/xlink" xmlns="http://www.w3.org/2000/svg" width="20" height="14" viewBox="0 0 20 14" class="ExploreSortDropdown-icon-qeh"><path fill-rule="evenodd" clip-rule="evenodd" d="M1.098.36A.66.66 0 0 0 .64.713a.66.66 0 0 0 .002.527.61.61 0 0 0 .48.36c.18.028 17.578.028 17.758-.001a.62.62 0 0 0 .478-.359.5.5 0 0 0 .051-.27c0-.134-.009-.177-.054-.264a.68.68 0 0 0-.315-.304L18.93.35 10.06.347C5.181.346 1.149.352 1.098.36M2.91 4.388a.64.64 0 0 0-.393.332c-.066.127-.068.43-.003.551a.8.8 0 0 0 .302.293l.094.046h14.18l.095-.046a.62.62 0 0 0 .352-.604.62.62 0 0 0-.365-.544l-.102-.046-7.04-.004c-5.638-.003-7.056.002-7.12.022M4.734 8.42a.6.6 0 0 0-.304.247.622.622 0 0 0 .268.91l.112.053h10.38l.112-.052a.623.623 0 0 0 .268-.911.6.6 0 0 0-.31-.248c-.098-.038-.213-.039-5.265-.038-5.005.001-5.168.002-5.261.039m2.605 3.98a.63.63 0 0 0-.518.735c.029.142.06.204.153.307.097.107.211.17.355.197.167.03 5.178.03 5.342 0a.53.53 0 0 0 .311-.153c.166-.15.24-.37.197-.58a.62.62 0 0 0-.369-.46l-.12-.056-2.63-.003c-1.447-.001-2.671.004-2.721.013" fill="#707070"></path></svg>